<?xml version="1.0" standalone="no"?>
<!DOCTYPE svg PUBLIC "-//W3C//DTD SVG 20010904//EN"
 "http://www.w3.org/TR/2001/REC-SVG-20010904/DTD/svg10.dtd">
<svg version="1.0" xmlns="http://www.w3.org/2000/svg"
 width="2363.000000pt" height="1800.000000pt" viewBox="0 0 2363.000000 1800.000000"
 preserveAspectRatio="xMidYMid meet">

<g transform="translate(0.000000,1800.000000) scale(0.100000,-0.100000)"
fill="#000000" stroke="none">
<path d="M16260 17243 c-239 -22 -391 -54 -583 -119 -248 -85 -506 -231 -742
-419 -144 -115 -429 -405 -580 -590 -184 -226 -204 -245 -249 -245 -21 0 -77
14 -124 31 -437 154 -999 255 -1617 288 -1047 58 -1864 -23 -2622 -258 -208
-64 -212 -65 -262 -45 -35 14 -58 37 -127 130 -328 436 -747 802 -1139 994
-323 159 -634 230 -1003 230 -249 0 -421 -21 -687 -85 -668 -159 -1337 -558
-1936 -1155 -254 -252 -439 -484 -621 -775 -465 -744 -770 -1733 -902 -2925
-58 -522 -73 -810 -86 -1615 -18 -1192 -32 -1543 -80 -2015 -150 -1471 -485
-2652 -1149 -4047 -50 -105 -176 -360 -280 -565 -293 -582 -451 -983 -533
-1361 -33 -150 -32 -417 1 -571 65 -308 193 -548 401 -756 126 -126 252 -217
421 -304 286 -148 608 -247 956 -293 178 -23 549 -23 738 1 334 41 682 129
995 251 517 201 1009 553 1649 1180 701 687 1143 1397 1397 2245 161 534 222
1029 211 1715 -7 436 -31 746 -103 1304 -13 106 -22 202 -19 212 10 31 52 24
318 -57 440 -132 798 -217 1117 -264 230 -34 285 -46 355 -80 95 -45 166 -121
264 -280 443 -717 1020 -1098 1831 -1211 60 -9 191 -13 355 -13 217 0 283 4
400 22 414 65 768 210 1080 442 287 214 541 502 687 783 137 262 192 297 538
331 282 29 743 136 1280 297 91 27 179 48 195 47 26 -3 30 -8 33 -35 2 -18 -8
-122 -22 -230 -143 -1108 -140 -1856 10 -2577 178 -850 546 -1589 1124 -2251
143 -164 554 -580 725 -733 594 -532 1155 -846 1805 -1011 292 -74 522 -103
825 -103 214 0 349 11 540 43 724 121 1208 412 1484 895 63 110 104 214 143
364 26 99 31 139 35 288 9 270 -25 452 -142 768 -137 370 -256 635 -518 1159
-328 657 -524 1104 -707 1610 -316 877 -520 1806 -620 2825 -48 489 -66 913
-75 1780 -12 1114 -51 1672 -166 2369 -189 1147 -493 1930 -1033 2666 -277
377 -662 758 -1021 1011 -471 332 -1074 588 -1585 673 -208 35 -436 48 -580
34z m-8806 -1084 c252 -51 484 -165 715 -351 121 -98 367 -352 609 -628 123
-140 245 -275 270 -299 110 -102 226 -153 352 -154 98 -1 155 14 330 83 505
199 981 295 1594 319 251 10 1098 -2 1281 -19 502 -45 719 -97 1415 -343 104
-36 125 -40 215 -41 97 -1 104 0 175 36 41 21 101 61 134 90 32 28 181 189
331 358 477 534 655 690 955 834 206 99 390 139 625 138 292 -1 528 -65 873
-238 376 -188 631 -366 906 -634 252 -246 436 -483 608 -785 254 -446 457
-1063 578 -1758 60 -347 111 -755 130 -1047 5 -91 13 -190 15 -220 3 -30 10
-417 15 -860 5 -443 14 -913 20 -1045 80 -1810 374 -3213 976 -4659 173 -414
328 -747 600 -1286 250 -495 378 -797 441 -1040 20 -79 24 -113 21 -205 -3
-99 -7 -117 -35 -177 -17 -37 -53 -90 -79 -118 -118 -126 -367 -228 -664 -272
-125 -18 -515 -15 -675 6 -510 66 -948 271 -1420 665 -290 242 -621 562 -814
786 -567 660 -858 1332 -958 2207 -22 193 -25 857 -5 1103 31 377 163 1413
192 1499 21 63 56 91 217 176 673 355 1042 687 1282 1154 211 410 330 1013
292 1476 -48 571 -252 1061 -686 1645 -575 774 -1285 1313 -2150 1635 -166 61
-495 160 -535 160 -37 0 -60 -9 -60 -24 0 -20 70 -80 170 -146 447 -297 916
-724 1285 -1170 318 -384 626 -880 761 -1227 129 -330 189 -723 164 -1090 -29
-455 -110 -708 -305 -958 -118 -151 -250 -258 -482 -393 -410 -237 -920 -456
-1463 -628 -691 -218 -1196 -326 -1776 -378 -194 -18 -251 -37 -329 -107 -68
-63 -81 -84 -155 -254 -97 -224 -210 -406 -368 -596 -301 -359 -719 -548
-1212 -549 -450 0 -837 143 -1134 421 -188 176 -387 473 -475 710 -21 58 -51
125 -65 148 -94 148 -242 219 -516 246 -1080 106 -2146 438 -3115 971 -239
131 -377 237 -485 371 -200 248 -293 499 -331 898 -15 150 -6 481 16 625 70
453 217 814 515 1260 460 689 1043 1279 1686 1708 67 45 132 94 143 111 21 30
21 30 2 40 -31 17 -61 13 -218 -29 -741 -197 -1418 -598 -2046 -1210 -379
-369 -624 -695 -826 -1100 -180 -361 -284 -703 -327 -1070 -20 -172 -15 -485
11 -645 83 -528 348 -1068 695 -1415 214 -216 440 -370 855 -585 189 -98 192
-100 215 -145 27 -54 136 -820 180 -1270 46 -481 56 -994 25 -1313 -80 -823
-349 -1503 -836 -2112 -194 -243 -640 -696 -887 -900 -449 -371 -863 -586
-1301 -675 -171 -34 -282 -44 -496 -44 -484 1 -795 85 -991 267 -102 95 -144
189 -144 323 0 88 11 144 57 294 81 265 166 458 429 975 281 554 443 904 620
1340 560 1383 849 2751 924 4365 5 118 14 539 20 935 10 707 20 1036 40 1345
68 1023 227 1774 521 2463 361 845 929 1444 1734 1828 289 138 469 192 735
223 76 9 297 -5 394 -25z"/>
<path d="M16001 11749 c-246 -26 -546 -116 -948 -285 -312 -131 -632 -290
-1223 -609 -140 -76 -406 -215 -590 -310 -430 -221 -841 -464 -926 -549 -73
-73 -119 -162 -136 -262 -23 -141 32 -307 145 -430 237 -258 698 -364 1594
-364 625 0 1081 68 1613 242 435 142 794 317 1049 513 118 91 305 281 384 392
115 161 200 355 233 530 22 119 15 325 -15 438 -130 480 -597 754 -1180 694z
m296 -754 c63 -19 127 -65 149 -107 12 -24 15 -49 12 -104 -4 -62 -13 -88 -57
-180 -46 -94 -64 -118 -144 -199 -232 -232 -685 -454 -1182 -579 -388 -97
-628 -131 -1015 -142 -293 -9 -778 17 -884 47 l-39 11 439 194 c246 109 691
319 1014 479 316 156 643 313 727 349 457 196 814 280 980 231z"/>
<path d="M7222 11735 c-451 -82 -752 -389 -802 -821 -39 -339 124 -744 420
-1043 173 -174 359 -301 645 -441 531 -260 1047 -405 1657 -467 135 -13 268
-17 608 -18 386 0 458 3 636 22 338 38 500 76 669 159 255 125 395 318 395
545 0 126 -48 235 -147 331 -106 103 -534 349 -1280 734 -252 130 -575 300
-718 377 -666 359 -1236 575 -1655 627 -114 14 -338 11 -428 -5z m563 -783
c332 -92 409 -125 1200 -512 690 -337 959 -464 1255 -590 107 -45 203 -89 214
-96 17 -11 15 -14 -25 -24 -88 -24 -151 -30 -457 -42 -639 -25 -1123 34 -1637
199 -262 84 -579 228 -755 343 -137 89 -292 249 -348 356 -43 83 -72 176 -72
228 0 52 38 114 86 142 78 46 119 54 244 50 101 -3 137 -10 295 -54z"/>
<path d="M11625 8558 c-234 -15 -407 -79 -518 -193 -169 -171 -168 -423 4
-701 109 -178 390 -420 559 -482 79 -29 180 -32 260 -9 104 30 303 168 432
300 165 167 288 414 288 576 0 107 -46 223 -122 306 -87 96 -212 154 -403 190
-92 17 -339 24 -500 13z"/>
</g>
</svg>
